<svg xmlns="http://www.w3.org/2000/svg" viewBox="0 0 128 128">
  <path fill="#fff" d="M90.4,53.4L90.4,53.4c0.7-2.5,1.1-5.1,1.1-7.8C91.5,30.4,79.2,18,64,18S36.5,30.4,36.5,45.5c0,2.7,0.4,5.3,1.1,7.8h0l0,0.1c0.2,0.5,0.3,1,0.5,1.5l7.2,21.7h37.3l7.2-21.6C90,54.5,90.2,54,90.4,53.4L90.4,53.4z"></path>
  <path fill="#c3dbea" d="M91.5,45.5c0-15.2-12-13.1-12,0c0,2.7-0.4,5.3-1.1,7.8h0l0,0.1c-0.2,0.6-0.3,1.1-0.5,1.6l-3.4,10.2c-1.9,5.6,2.3,11.4,8.2,11.4h0l7.2-21.6c0.2-0.5,0.4-1.1,0.5-1.6l0-0.1h0C91.1,50.9,91.5,48.3,91.5,45.5z"></path>
  <path fill="#555" d="M57 53.699999999999996A2.7 2.7 0 1 0 57 59.1 2.7 2.7 0 1 0 57 53.699999999999996zM69.8 53.699999999999996A2.7 2.7 0 1 0 69.8 59.1 2.7 2.7 0 1 0 69.8 53.699999999999996z"></path>
  <path fill="#343" d="M88.5 45.5c0 2.4-.3 4.7-1 7 0 0 0 0 0 .1 0 0 0 0 0 0-.1.5-.3 1-.5 1.5 0 0 0 .1 0 .1L80.7 73c-.5 1.6.3 3.3 1.9 3.8 1.6.5 3.3-.3 3.8-1.9l6.2-18.8c.2-.6.4-1.2.6-1.8 0-.1 0-.2.1-.2.8-2.8 1.2-5.6 1.2-8.5C94.5 28.7 80.8 15 64 15S33.5 28.7 33.5 45.5c0 2.9.4 5.7 1.2 8.5 0 .1 0 .2.1.3l0 .1c.2.6.4 1.1.5 1.6l6.3 19.1c.4 1.3 1.6 2.1 2.8 2.1.3 0 .6 0 .9-.2 1.6-.5 2.4-2.2 1.9-3.8L41 54c-.2-.4-.3-.9-.5-1.4 0 0 0-.1 0-.1-.7-2.3-1-4.6-1-7C39.5 32 50.5 21 64 21S88.5 32 88.5 45.5zM31 99c7.5 0 14.3-4.7 16.9-11.8.5-1.4 2.1-2.3 3.6-1.9 1.7.4 2.8 2.1 2.4 3.8-1.7 7.9-6.8 14.5-14 18.2-1.5.7-2.1 2.5-1.3 4 .5 1.1 1.6 1.7 2.7 1.7.5 0 .9-.1 1.3-.3 8.9-4.4 15.2-12.6 17.2-22.3 1-4.9-2.1-9.8-7-10.8-4.5-1-9 1.4-10.6 5.7C40.5 89.9 36 93 31 93c-6.6 0-12-5.4-12-12 0-1.7-1.3-3-3-3s-3 1.3-3 3C13 91 21.1 99 31 99z"></path>
  <path fill="#343" d="M109 81.1c0 6.3-5.1 11.7-11.4 12-5.2.2-9.9-2.8-11.8-7.6-1.7-4.4-6.2-6.9-10.8-6l-.6.1c-2.5.5-4.7 2-6.1 4.2-1.4 2.1-1.8 4.7-1.3 7.1 2.2 9.5 8.4 17.5 17.1 21.8.4.2.9.3 1.3.3 1.1 0 2.2-.6 2.7-1.7.7-1.5.1-3.3-1.3-4-7.1-3.6-12.2-10-14-17.8-.2-.9 0-1.8.5-2.5.5-.8 1.3-1.3 2.2-1.5l.6-.1c1.7-.3 3.3.6 4 2.3C83 94.8 90.1 99.4 97.8 99c9.4-.4 17.1-8.5 17.2-18 0-4.8-1.9-9.3-5.3-12.8-1.2-1.2-3.1-1.2-4.2 0-1.2 1.2-1.2 3.1 0 4.2C107.8 74.8 109 77.9 109 81.1zM20.4 67.4A3 3 0 1 0 20.4 73.4 3 3 0 1 0 20.4 67.4z"></path>
</svg>
